<?xml version="1.0" standalone="no"?>
<!DOCTYPE svg PUBLIC "-//W3C//DTD SVG 20010904//EN"
 "http://www.w3.org/TR/2001/REC-SVG-20010904/DTD/svg10.dtd">
<svg version="1.0" xmlns="http://www.w3.org/2000/svg"
 width="500.000000pt" height="500.000000pt" viewBox="0 0 500.000000 500.000000"
 preserveAspectRatio="xMidYMid meet">
<metadata>
Created by potrace 1.14, written by Peter Selinger 2001-2017
</metadata>
<g transform="translate(0.000000,500.000000) scale(0.100000,-0.100000)"
fill="#000000" stroke="none">
<path d="M2196 4901 c-4 -5 -32 -13 -64 -17 -31 -3 -69 -15 -84 -25 -14 -11
-30 -19 -34 -19 -8 0 -261 -122 -339 -163 -37 -20 -173 -107 -275 -177 -75
-52 -143 -123 -210 -221 -88 -129 -139 -245 -198 -444 -80 -273 -84 -302 -56
-358 23 -44 29 -292 8 -324 -17 -27 -8 -30 17 -7 26 23 78 11 128 -29 22 -18
61 -48 86 -67 25 -19 45 -39 45 -44 0 -5 7 -17 16 -27 23 -26 20 -278 -6 -439
-13 -85 -24 -184 -21 -195 13 -40 12 -44 -18 -59 -17 -9 -34 -16 -38 -15 -4 1
-28 1 -53 0 l-45 -1 36 -24 c79 -54 136 -242 164 -546 8 -91 21 -221 29 -290
31 -267 31 -308 1 -391 -24 -66 -26 -83 -22 -163 7 -104 28 -145 103 -198 70
-49 102 -85 109 -121 9 -49 47 -150 62 -168 7 -8 13 -31 14 -50 0 -32 4 -36
72 -69 90 -44 144 -97 184 -183 l33 -67 45 0 c44 0 54 10 45 45 -2 6 -3 19 -4
30 -1 11 -5 26 -9 33 -6 8 -1 12 15 13 l23 0 -23 10 c-23 9 -23 9 -5 34 19 26
58 34 66 13 2 -7 13 7 24 32 17 35 22 40 26 25 2 -11 3 -5 1 14 -3 33 -3 33
17 15 14 -13 22 -15 31 -6 7 7 33 9 76 5 61 -6 64 -5 55 13 -7 13 -3 54 12
134 30 158 27 153 87 174 75 26 248 110 312 151 38 24 56 31 64 23 8 -8 9 -4
6 13 -6 24 -5 24 20 -4 15 -16 26 -22 26 -15 0 8 -6 20 -12 27 -10 11 -10 14
0 18 6 3 12 12 12 20 0 13 2 13 16 2 10 -8 12 -15 5 -17 -14 -5 -15 -72 -1
-72 6 0 10 11 10 25 0 22 2 24 14 13 8 -7 13 -17 13 -22 -1 -5 4 -11 11 -13 6
-3 12 2 12 11 0 9 5 16 10 16 6 0 10 -7 10 -15 0 -9 9 -15 21 -15 12 0 23 -8
26 -20 6 -24 29 -26 41 -4 11 19 22 20 34 2 8 -10 9 -9 4 4 -5 16 25 44 36 33
2 -2 5 7 6 21 1 14 7 35 14 47 11 21 11 21 19 2 11 -29 10 -35 -3 -35 -8 0
-13 -14 -14 -32 l-1 -31 14 26 c7 15 21 27 30 27 12 0 14 3 6 11 -7 7 -5 22 8
49 11 22 19 52 19 67 1 27 1 27 16 8 12 -15 15 -35 11 -87 -7 -83 7 -89 23
-10 15 78 18 85 34 79 9 -4 16 3 18 17 5 23 -6 30 -114 75 -41 17 -55 33 -117
125 -102 151 -104 140 57 355 109 147 185 283 211 378 10 37 39 113 64 168 60
134 84 219 96 343 14 134 33 186 111 307 61 93 65 104 71 171 7 93 62 195 123
228 39 22 58 46 37 46 -18 0 -12 33 14 75 25 41 33 71 15 60 -16 -10 -12 13 8
42 13 21 17 49 17 129 0 61 -5 107 -12 115 -16 20 -44 119 -33 119 5 0 18 -10
29 -21 l20 -21 -6 23 c-4 13 -11 27 -17 31 -8 5 -7 11 2 20 10 10 14 10 21 0
6 -10 10 -10 21 3 11 13 10 15 -4 9 -21 -8 -21 -7 10 56 14 30 28 70 31 89 3
20 13 42 22 49 19 16 25 51 24 167 0 106 -23 193 -60 233 -11 11 -13 11 -13 0
0 -10 -2 -10 -9 1 -5 8 -7 19 -5 25 2 6 -5 17 -16 24 -16 10 -20 10 -20 0 -1
-7 -9 3 -18 22 -9 19 -22 35 -28 35 -16 0 -40 28 -49 55 -7 24 -7 24 12 7 11
-9 22 -15 25 -11 3 3 15 -7 27 -21 11 -15 25 -25 32 -23 16 5 -128 136 -170
154 -19 8 -38 18 -41 22 -11 16 -148 101 -201 126 -116 54 -269 96 -349 96
-41 0 -106 7 -145 15 -40 9 -143 17 -238 20 -182 5 -236 11 -238 29 -1 6 -2
19 -3 28 0 10 -4 18 -8 18 -5 0 -12 0 -18 0 -5 0 -10 -9 -10 -19 0 -32 -19
-34 -53 -8 -35 27 -111 45 -121 28z m1564 -552 c0 -6 -4 -7 -10 -4 -5 3 -10
11 -10 16 0 6 5 7 10 4 6 -3 10 -11 10 -16z m127 -321 c-3 -8 -6 -5 -6 6 -1
11 2 17 5 13 3 -3 4 -12 1 -19z m-1377 -130 c0 7 4 11 9 7 5 -3 35 -7 66 -10
31 -2 63 -9 71 -16 17 -14 19 -90 3 -106 -20 -20 11 -70 56 -90 61 -27 82 -49
83 -89 1 -19 4 -39 7 -44 10 -17 25 -11 25 10 0 11 5 20 11 20 6 0 8 -9 3 -22
-7 -23 -6 -23 14 -5 20 19 21 18 15 -5 -3 -12 -10 -28 -15 -34 -5 -7 -3 -16 6
-23 12 -10 13 -8 9 9 -5 18 -2 21 13 18 11 -2 18 -11 18 -21 -3 -32 45 -11 59
26 3 9 13 17 22 17 8 0 15 7 15 17 0 9 3 13 7 9 9 -8 9 -10 12 -81 3 -50 3
-50 13 -17 6 17 15 32 19 32 5 0 10 -15 10 -32 2 -28 2 -30 7 -8 4 24 5 24 18
-10 10 -27 13 -30 13 -12 1 12 6 22 12 22 6 0 8 -9 4 -20 -4 -11 -2 -20 4 -20
6 0 11 7 11 15 0 13 4 14 20 5 11 -6 20 -17 20 -25 0 -9 6 -12 15 -9 10 4 15
0 15 -15 0 -14 5 -19 15 -15 8 4 15 1 15 -5 0 -6 7 -11 15 -11 8 0 18 -12 21
-26 5 -19 9 -22 15 -12 6 9 9 3 9 -19 0 -17 4 -34 9 -37 5 -3 12 -23 15 -43 4
-21 9 -53 12 -71 4 -18 1 -38 -5 -46 -6 -7 -10 -20 -8 -27 2 -8 2 -11 0 -6 -8
13 -43 7 -43 -7 0 -14 -65 -28 -76 -17 -3 4 -9 6 -13 6 -10 0 -37 27 -42 43
-3 10 -13 5 -33 -13 -16 -15 -45 -29 -65 -31 -41 -5 -50 -12 -32 -23 10 -7 9
-12 -7 -23 -11 -7 -20 -24 -20 -38 1 -14 0 -50 -1 -80 -3 -66 9 -159 20 -166
5 -3 9 -15 9 -27 0 -18 -2 -19 -10 -7 -5 8 -10 10 -10 4 0 -6 3 -13 6 -17 10
-10 10 -97 0 -97 -5 0 -2 -8 7 -18 10 -10 17 -26 17 -35 0 -9 5 -16 11 -14 6
1 14 -4 16 -10 3 -7 -2 -13 -11 -13 -9 0 -16 -4 -16 -10 0 -5 7 -10 15 -10 13
0 14 -4 5 -21 -9 -16 -8 -24 4 -38 9 -10 16 -35 16 -58 0 -26 5 -43 14 -46 22
-9 -24 -112 -76 -170 -23 -26 -45 -53 -49 -58 -3 -6 -30 -13 -60 -16 -29 -2
-60 -9 -67 -16 -11 -8 -16 -7 -23 6 -13 22 -39 22 -39 1 0 -9 6 -14 13 -11 7
3 21 -1 32 -9 10 -8 14 -14 8 -14 -9 0 -28 -44 -26 -60 1 -3 -5 -11 -13 -18
-11 -10 -13 -8 -8 18 4 19 2 30 -5 30 -6 0 -11 -9 -11 -19 0 -10 -7 -22 -16
-25 -13 -5 -15 -1 -11 21 4 16 4 22 1 15 -3 -6 -10 -9 -16 -6 -5 3 -12 -3 -14
-13 -6 -21 -44 -50 -44 -33 0 5 -4 10 -10 10 -5 0 -10 -7 -10 -16 0 -14 -3
-14 -15 -4 -8 7 -15 9 -15 4 0 -5 -4 -26 -9 -47 -8 -35 -7 -38 17 -44 29 -7
58 -31 49 -39 -3 -3 -16 1 -29 9 -12 8 -40 18 -60 21 -28 5 -36 11 -35 26 1
11 8 20 17 20 23 0 52 96 33 111 -10 9 -13 8 -14 -2 0 -10 -2 -11 -6 -1 -7 18
-33 15 -33 -5 0 -15 -2 -16 -10 -3 -8 13 -11 12 -24 -5 -9 -12 -15 -15 -16 -7
0 7 -4 10 -10 7 -5 -3 -10 1 -10 9 0 9 -4 16 -9 16 -18 0 -51 -58 -50 -87 1
-21 3 -23 7 -8 l5 20 8 -20 c7 -17 8 -16 8 8 1 38 18 34 19 -5 1 -28 -2 -33
-23 -34 -16 -1 -26 5 -31 18 -4 15 -9 17 -17 9 -6 -6 -27 -11 -46 -11 l-35 0
33 32 c18 18 41 33 50 33 8 0 17 8 19 17 3 14 -1 16 -14 11 -14 -5 -16 -3 -11
11 6 15 4 17 -10 11 -36 -15 -66 -18 -59 -6 4 6 12 9 17 6 5 -3 6 1 3 9 -4 12
-11 13 -31 5 -20 -7 -30 -6 -42 6 -15 13 -20 13 -39 -1 -12 -8 -31 -17 -43
-19 -17 -4 -19 -2 -8 11 24 29 -23 2 -52 -30 -17 -19 -29 -25 -29 -17 0 8 10
25 22 38 l21 23 -39 1 c-23 1 -30 4 -16 6 33 6 27 23 -9 23 -23 0 -30 -4 -26
-14 4 -9 -2 -17 -13 -21 -10 -3 -32 -21 -49 -40 -18 -20 -40 -35 -53 -35 -22
-1 -22 -1 -5 -15 18 -13 18 -14 -1 -33 -11 -11 -34 -23 -51 -27 -31 -7 -40
-19 -22 -30 6 -3 14 3 20 12 9 16 10 16 11 1 0 -22 -18 -32 -34 -19 -10 8 -17
7 -26 -4 -14 -17 -50 -20 -50 -4 0 5 4 7 10 4 6 -4 9 7 6 26 -2 18 -8 35 -15
37 -6 2 -11 12 -11 23 0 10 -5 19 -11 19 -5 0 -8 4 -5 9 8 13 -4 42 -15 35 -5
-3 -9 2 -9 10 0 9 -4 16 -10 16 -5 0 -7 7 -4 15 4 9 -1 18 -12 22 -21 8 -63
53 -64 68 0 6 -13 21 -30 35 -17 14 -30 31 -30 38 0 7 -7 15 -15 18 -8 4 -15
18 -15 33 0 20 -2 23 -10 11 -5 -8 -10 -10 -11 -5 -1 6 -3 25 -5 44 -2 19 -8
39 -13 45 -4 6 -11 28 -15 49 -4 20 -11 37 -17 37 -5 0 -9 6 -8 13 2 6 -3 32
-10 57 -7 24 -11 62 -8 82 3 21 1 41 -5 44 -5 3 -7 23 -3 45 4 25 3 39 -4 39
-6 0 -11 5 -11 11 0 6 7 9 15 5 8 -3 15 -1 15 4 0 6 -9 10 -20 10 -26 0 -26
17 1 25 12 4 17 10 12 14 -15 10 -23 40 -12 47 6 4 7 10 0 17 -17 21 -8 123 9
112 12 -8 13 5 1 25 -6 8 -7 19 -3 25 4 5 7 12 8 15 3 16 19 46 27 51 5 4 11
22 12 40 2 19 4 36 5 39 0 3 5 -2 10 -10 11 -17 10 -20 15 45 2 17 3 39 4 50
1 17 3 18 12 5 9 -12 10 -11 6 8 -5 24 17 43 41 35 6 -3 12 3 12 12 0 9 -4 13
-10 10 -5 -3 -10 -2 -10 4 0 5 5 13 10 16 6 4 8 10 6 14 -10 16 26 51 52 51
16 0 37 11 51 25 13 14 18 25 11 25 -6 0 -8 5 -5 11 4 6 13 8 21 5 8 -3 14 0
14 7 0 8 4 7 10 -3 7 -12 12 -12 22 -2 9 9 9 12 0 12 -22 0 -12 17 16 28 42
17 47 18 47 7 0 -5 -5 -9 -12 -7 -17 4 -16 -6 2 -24 8 -9 19 -13 24 -9 6 3 10
-3 10 -12 1 -45 4 -50 25 -45 20 5 19 3 -4 -22 -20 -22 -22 -29 -10 -36 12 -8
12 -10 -3 -16 -10 -3 -30 -4 -44 -1 -26 5 -26 4 -8 -9 22 -16 41 -18 50 -4 3
6 15 10 25 10 20 0 45 34 36 49 -3 5 1 12 10 15 12 5 15 2 10 -9 -3 -9 -2 -13
4 -10 6 3 10 17 10 30 0 13 4 26 9 30 5 3 12 19 16 35 4 17 17 38 30 46 14 9
27 24 30 35 4 10 13 19 20 19 8 0 19 9 25 21 9 16 8 23 -3 32 -24 19 -30 53
-12 70 15 16 22 52 7 43 -4 -2 -7 8 -6 22 0 17 7 28 17 30 10 2 17 13 17 27 0
30 8 35 67 40 26 2 48 5 48 6 0 1 9 3 20 4 43 5 105 26 105 35 0 6 5 10 10 10
6 0 10 -7 10 -16 0 -11 5 -14 18 -9 20 8 45 14 87 21 17 3 32 10 34 16 2 6 7
5 12 -3 7 -11 9 -11 9 -1z m182 -90 c-7 -7 -12 -8 -12 -2 0 6 3 14 7 17 3 4 9
5 12 2 2 -3 -1 -11 -7 -17z m1083 -113 c-21 -19 -43 -31 -47 -28 -5 2 11 19
34 38 55 42 66 34 13 -10z m-847 -136 c-2 -3 4 -14 12 -24 12 -15 12 -17 1
-14 -8 3 -18 15 -23 28 -5 15 -4 21 3 19 6 -2 9 -6 7 -9z m429 -431 c-3 -8 -6
-5 -6 6 -1 11 2 17 5 13 3 -3 4 -12 1 -19z m-167 -398 c0 -5 -7 -10 -15 -10
-8 0 -15 5 -15 10 0 6 7 10 15 10 8 0 15 -4 15 -10z m118 -59 c5 -15 -27 -46
-58 -56 l-23 -7 22 23 c11 12 21 31 21 40 0 20 31 20 38 0z m-1811 -463 c-3
-8 -6 -5 -6 6 -1 11 2 17 5 13 3 -3 4 -12 1 -19z m1293 -298 c0 -5 -4 -10 -10
-10 -5 0 -10 5 -10 10 0 6 5 10 10 10 6 0 10 -4 10 -10z m-286 -52 c18 -15 18
-17 4 -18 -34 0 -45 10 -40 38 3 17 7 21 10 12 3 -8 15 -22 26 -32z m326 26
c0 -9 -5 -14 -12 -12 -18 6 -21 28 -4 28 9 0 16 -7 16 -16z m-103 -70 c-3 -3
-12 -4 -19 -1 -8 3 -5 6 6 6 11 1 17 -2 13 -5z m64 -14 c-7 -4 -11 -13 -9 -21
2 -8 -5 -14 -17 -14 -13 0 -21 8 -23 23 -3 20 0 23 17 17 13 -4 21 -2 21 5 0
6 5 8 11 4 8 -5 8 -8 0 -14z m-922 -16 c-9 -11 -15 -12 -23 -4 -8 8 -7 13 4
20 20 12 33 1 19 -16z m-119 6 c0 -5 -4 -10 -10 -10 -5 0 -10 5 -10 10 0 6 5
10 10 10 6 0 10 -4 10 -10z m466 -22 c25 -18 52 -37 60 -43 10 -7 17 -6 24 5
9 13 10 13 10 0 0 -9 10 -25 23 -37 56 -56 75 -71 81 -66 3 4 6 0 6 -9 0 -8
-12 -20 -26 -27 -17 -7 -24 -17 -20 -26 4 -10 -1 -15 -14 -15 -11 0 -20 -3
-20 -7 0 -5 -11 -13 -25 -20 -23 -10 -25 -9 -25 12 0 34 -37 21 -45 -16 -4
-16 -12 -27 -18 -26 -6 1 -11 -3 -12 -10 0 -7 -5 -17 -12 -24 -10 -10 -8 -17
10 -33 13 -12 26 -22 31 -23 5 -1 12 -7 17 -14 12 -20 49 -22 50 -1 0 12 2 13
6 3 4 -9 7 -10 12 -2 6 9 15 8 36 -3 l29 -15 -25 -10 c-13 -5 -22 -10 -19 -11
3 -1 13 -3 23 -5 29 -5 33 -15 7 -15 -13 0 -21 -3 -17 -6 3 -3 -2 -14 -11 -25
-10 -12 -18 -15 -23 -8 -3 6 -9 2 -12 -10 -3 -12 -2 -21 3 -21 4 0 10 -6 13
-14 4 -10 -3 -12 -28 -9 -32 3 -33 2 -31 -29 1 -28 -3 -33 -24 -36 -24 -4 -25
-3 -5 12 16 13 17 15 3 10 -12 -4 -20 0 -24 11 -6 14 -9 12 -20 -11 -8 -19
-13 -23 -13 -11 -1 11 -9 17 -27 17 -17 0 -23 4 -18 13 6 9 4 9 -7 0 -21 -21
-30 -15 -23 15 4 21 3 24 -5 12 -9 -13 -12 -12 -17 7 -8 29 -31 36 -52 15 -28
-27 -51 -27 -45 -1 4 15 3 20 -5 15 -7 -4 -12 -1 -12 7 0 8 9 17 21 20 12 3
18 10 14 16 -7 12 -55 -15 -55 -30 0 -5 -5 -9 -10 -9 -7 0 -7 6 -1 18 7 14 6
18 -9 18 -10 0 -16 -5 -12 -11 3 -5 -8 1 -25 15 -18 14 -32 33 -32 43 -1 11
-9 17 -23 17 -23 1 -23 1 -3 16 20 16 19 16 -4 9 -17 -5 -21 -4 -16 5 4 7 2
16 -5 20 -10 6 -9 13 4 31 23 33 20 47 -4 19 l-20 -23 3 33 c3 19 9 36 16 38
6 2 11 10 11 18 0 17 27 19 33 2 3 -9 14 -4 33 15 25 24 27 30 16 48 -15 23
-13 27 20 44 13 6 22 19 21 29 0 10 10 29 23 41 13 12 22 24 20 26 -3 2 5 5
17 5 44 3 73 11 102 27 41 22 48 21 101 -15z m47 12 c-3 -11 -7 -20 -9 -20 -2
0 -4 9 -4 20 0 11 4 20 9 20 5 0 7 -9 4 -20z m41 1 c3 -5 22 -12 43 -16 40 -7
206 -89 223 -110 7 -9 6 -16 -5 -25 -8 -7 -15 -18 -15 -24 0 -8 3 -8 8 0 4 6
15 14 26 17 14 6 17 4 12 -9 -3 -8 -6 -19 -6 -23 0 -3 -19 -5 -41 -3 -23 3
-37 7 -32 11 15 9 24 59 13 66 -5 3 -10 -2 -11 -12 0 -16 -1 -16 -9 2 -5 11
-9 14 -9 7 -1 -7 4 -22 9 -33 9 -17 7 -19 -16 -19 -22 0 -25 2 -14 15 7 8 10
15 7 15 -3 0 -12 3 -21 6 -11 4 -16 0 -16 -11 0 -15 -4 -14 -23 7 -12 13 -28
23 -34 21 -12 -4 -29 33 -24 56 1 8 -3 12 -12 8 -7 -3 -20 -1 -28 4 -11 7 -11
9 -1 9 7 0 10 5 7 10 -4 6 -11 8 -16 5 -5 -4 -9 -1 -9 4 0 6 -7 11 -15 11 -8
0 -15 5 -15 10 0 12 17 13 24 1z m421 -31 c3 -5 1 -10 -4 -10 -6 0 -11 5 -11
10 0 6 2 10 4 10 3 0 8 -4 11 -10z m-968 -52 c-3 -7 -5 -2 -5 12 0 14 2 19 5
13 2 -7 2 -19 0 -25z m888 -88 c8 -13 -14 -42 -26 -34 -5 3 -9 14 -9 25 0 20
24 26 35 9z m-748 -26 c-3 -3 -12 -4 -19 -1 -8 3 -5 6 6 6 11 1 17 -2 13 -5z
m360 -96 c-3 -8 -6 -5 -6 6 -1 11 2 17 5 13 3 -3 4 -12 1 -19z m188 -168 c3
-5 -1 -10 -9 -10 -9 0 -16 5 -16 10 0 6 4 10 9 10 6 0 13 -4 16 -10z m-365
-64 c0 -3 -4 -8 -10 -11 -5 -3 -10 -1 -10 4 0 6 5 11 10 11 6 0 10 -2 10 -4z
m-89 -49 c-10 -9 -11 -8 -5 6 3 10 9 15 12 12 3 -3 0 -11 -7 -18z m-290 -201
c5 3 9 -2 9 -10 0 -22 20 -20 21 2 1 16 2 16 6 0 2 -10 9 -18 14 -18 6 0 7 -4
4 -10 -4 -6 5 -10 19 -10 17 0 26 -6 26 -15 0 -9 7 -18 16 -22 8 -3 13 -12 10
-19 -3 -8 7 -21 24 -31 17 -9 30 -20 30 -24 0 -4 12 -10 26 -13 17 -5 24 -12
20 -21 -4 -11 1 -13 24 -8 23 4 30 2 30 -11 0 -9 -5 -16 -11 -16 -6 0 -9 -6
-6 -13 3 -7 -10 -23 -29 -35 l-34 -22 0 25 c0 14 -4 25 -9 25 -5 0 -9 -6 -8
-12 1 -38 -5 -54 -26 -64 -21 -9 -23 -8 -19 18 4 27 3 28 -24 18 l-28 -11 19
22 c20 22 20 22 -2 15 -19 -6 -23 -3 -29 21 -10 47 -14 54 -24 48 -5 -3 -10 2
-10 12 0 10 -9 25 -20 33 -11 8 -20 22 -20 32 0 10 -4 18 -9 18 -12 0 -23 48
-14 63 4 7 7 21 6 32 -2 11 0 14 3 7 3 -6 10 -10 15 -6z m1224 -286 c3 -5 1
-10 -4 -10 -6 0 -11 5 -11 10 0 6 2 10 4 10 3 0 8 -4 11 -10z m-827 -444 c-7
-8 -15 -12 -17 -11 -5 6 10 25 20 25 5 0 4 -6 -3 -14z m-98 -66 c0 -5 -7 -7
-15 -4 -8 4 -15 8 -15 10 0 2 7 4 15 4 8 0 15 -4 15 -10z"/>
<path d="M2160 3820 c0 -5 5 -10 10 -10 6 0 10 5 10 10 0 6 -4 10 -10 10 -5 0
-10 -4 -10 -10z"/>
<path d="M2980 3510 c0 -5 5 -10 10 -10 6 0 10 5 10 10 0 6 -4 10 -10 10 -5 0
-10 -4 -10 -10z"/>
<path d="M2940 3472 c0 -8 24 -48 37 -60 7 -7 13 -20 13 -28 0 -8 5 -14 11
-14 7 0 9 9 5 23 -3 12 -6 36 -6 54 0 30 -2 32 -30 30 -16 -1 -30 -3 -30 -5z
m45 -22 c3 -5 -1 -10 -9 -10 -9 0 -16 5 -16 10 0 6 4 10 9 10 6 0 13 -4 16
-10z"/>
<path d="M2886 3453 c-8 -19 7 -38 22 -29 11 7 4 46 -8 46 -4 0 -11 -8 -14
-17z"/>
<path d="M2750 3414 c0 -8 5 -12 10 -9 6 3 10 10 10 16 0 5 -4 9 -10 9 -5 0
-10 -7 -10 -16z"/>
<path d="M3015 3420 c-3 -5 1 -10 10 -10 9 0 13 5 10 10 -3 6 -8 10 -10 10 -2
0 -7 -4 -10 -10z"/>
<path d="M1775 3407 c-4 -10 -5 -21 -1 -24 10 -10 18 4 13 24 -4 17 -4 17 -12
0z"/>
<path d="M2920 3408 c0 -7 9 -24 19 -37 l19 -24 6 21 c5 14 2 28 -8 37 -18 18
-36 19 -36 3z"/>
<path d="M2065 3360 c-4 -6 -14 -10 -23 -9 -28 5 -120 -22 -125 -35 -3 -7 -19
-16 -36 -19 -17 -4 -31 -12 -31 -19 0 -9 3 -9 12 0 19 19 33 14 15 -6 -19 -20
-13 -34 9 -25 8 3 14 0 14 -6 0 -6 -5 -11 -12 -11 -9 0 -9 -3 -1 -11 8 -8 30
-5 81 9 42 11 97 18 134 17 35 -1 69 3 77 9 11 8 13 8 7 -1 -5 -10 6 -13 43
-13 36 0 51 -4 51 -13 0 -18 35 -58 44 -50 3 3 6 -3 6 -15 0 -16 6 -22 22 -22
12 0 18 -3 14 -7 -8 -9 -17 -10 -118 -18 -45 -3 -84 -8 -88 -10 -3 -2 -26 -5
-51 -6 -67 -2 -159 -20 -159 -31 0 -6 -8 -7 -17 -4 -9 4 -20 1 -25 -6 -6 -11
-10 -11 -16 0 -7 10 -13 8 -26 -7 -14 -16 -15 -23 -6 -41 8 -15 18 -20 31 -17
10 3 22 1 25 -4 3 -5 18 -9 35 -9 19 0 29 -5 29 -15 0 -9 6 -15 13 -14 26 3
37 -2 37 -16 0 -18 39 -16 59 3 8 8 17 9 20 5 3 -5 17 -6 31 -3 21 6 23 8 8
15 -21 9 -24 35 -4 35 8 0 17 -11 20 -24 4 -17 17 -28 41 -36 20 -7 35 -18 35
-27 0 -9 6 -13 15 -9 10 4 15 -1 15 -14 0 -25 -25 -26 -39 -2 -9 15 -12 15
-21 2 -13 -21 -13 -27 5 -34 8 -3 15 -1 15 4 0 6 10 6 26 0 14 -6 39 -10 55
-10 16 0 30 -6 30 -12 1 -7 2 -19 3 -27 2 -21 51 -31 93 -19 45 12 83 36 83
52 0 11 31 35 60 47 8 3 15 17 15 30 0 21 5 24 40 24 30 0 41 5 43 18 2 9 7
17 12 17 5 0 6 -8 3 -17 -6 -16 -5 -16 11 -4 9 8 15 20 12 28 -3 8 -2 11 3 8
5 -3 13 0 17 6 3 6 19 9 35 5 16 -3 29 -1 29 4 0 5 10 12 23 16 29 9 62 43 72
73 8 26 -21 91 -41 91 -7 0 -15 6 -17 13 -3 7 -6 5 -6 -5 -1 -22 -21 -24 -21
-3 0 8 -6 15 -14 15 -8 0 -17 8 -19 18 -4 16 -5 16 -6 0 -1 -23 -18 -23 -23
-2 -3 17 -52 27 -115 25 -18 0 -35 4 -38 9 -3 6 -15 10 -26 10 -10 0 -19 6
-19 13 0 9 -3 8 -9 -2 -6 -10 -10 -10 -16 -1 -4 6 -13 9 -21 6 -8 -3 -14 -1
-14 5 0 6 -7 8 -17 5 -9 -4 -20 -1 -24 5 -3 6 -25 11 -48 11 -24 -1 -47 6 -56
14 -10 10 -29 14 -53 12 -28 -2 -36 1 -34 11 6 30 -55 42 -81 16 -8 -8 -34
-19 -56 -24 -38 -8 -41 -7 -36 9 6 20 -10 36 -20 20z m165 -40 c0 -5 -9 -10
-21 -10 -11 0 -17 5 -14 10 3 6 13 10 21 10 8 0 14 -4 14 -10z m23 -237 c-7
-2 -19 -2 -25 0 -7 3 -2 5 12 5 14 0 19 -2 13 -5z m165 -118 c12 -14 22 -31
22 -38 0 -8 -3 -7 -9 2 -7 11 -13 12 -23 4 -18 -15 -88 -22 -80 -8 20 34 47
65 57 65 6 0 21 -11 33 -25z"/>
<path d="M1800 3354 c0 -3 7 -12 15 -20 13 -14 15 -13 15 5 0 12 -6 21 -15 21
-8 0 -15 -3 -15 -6z"/>
<path d="M1605 3330 c-3 -5 -1 -10 4 -10 6 0 11 5 11 10 0 6 -2 10 -4 10 -3 0
-8 -4 -11 -10z"/>
<path d="M1866 3185 c-3 -8 -1 -15 3 -15 5 0 11 7 15 15 3 8 1 15 -3 15 -5 0
-11 -7 -15 -15z"/>
<path d="M1857 3116 c-44 -23 -52 -33 -38 -55 8 -12 11 -12 24 0 8 8 35 23 61
34 25 10 46 22 46 26 0 17 -55 15 -93 -5z"/>
<path d="M2700 2740 c-8 -5 -11 -12 -7 -16 4 -4 15 0 24 9 18 18 8 23 -17 7z"/>
<path d="M2451 2244 c0 -11 3 -14 6 -6 3 7 2 16 -1 19 -3 4 -6 -2 -5 -13z"/>
<path d="M2477 2178 c7 -29 49 -75 85 -94 35 -18 38 -18 38 6 0 22 16 27 23 8
3 -7 8 1 12 19 8 33 8 33 87 17 33 -7 88 -52 88 -74 1 -12 3 -11 11 3 8 14 6
29 -10 62 -16 35 -29 46 -66 60 -56 22 -134 15 -172 -15 -33 -26 -45 -25 -76
6 -25 25 -25 25 -20 2z"/>
<path d="M2480 2010 c-13 -8 -12 -10 3 -10 9 0 17 5 17 10 0 12 -1 12 -20 0z"/>
<path d="M2048 1743 c6 -2 18 -2 25 0 6 3 1 5 -13 5 -14 0 -19 -2 -12 -5z"/>
<path d="M3810 3576 c0 -8 4 -17 9 -20 5 -4 7 3 4 14 -6 23 -13 26 -13 6z"/>
<path d="M886 3098 c-9 -12 -16 -33 -16 -45 0 -12 -9 -39 -19 -60 -36 -71 -45
-143 -30 -228 12 -68 35 -115 57 -115 4 0 9 21 10 48 1 26 13 81 28 122 33 97
38 120 28 120 -12 0 -63 -128 -71 -174 -3 -20 -10 -36 -14 -36 -14 0 -11 83 5
142 14 54 52 128 65 128 4 0 13 11 19 25 12 27 49 35 49 10 0 -8 -4 -12 -9 -9
-13 8 -38 -23 -38 -48 l1 -23 23 27 c13 15 27 24 30 21 3 -4 6 6 6 20 0 21 5
27 23 27 23 -1 57 -21 57 -35 0 -5 8 -18 18 -29 10 -12 26 -40 34 -64 l16 -42
-42 -25 c-24 -14 -57 -25 -74 -25 -63 0 -91 -26 -105 -100 -9 -46 33 -123 82
-149 32 -18 37 -7 11 29 -16 22 -20 38 -15 58 6 25 120 141 139 142 4 0 5 -11
2 -25 -8 -30 4 -33 22 -4 16 26 24 79 11 79 -5 0 -9 -6 -10 -12 0 -7 -7 13
-15 45 -18 76 -39 115 -81 153 -30 28 -102 57 -139 57 -8 0 -14 4 -14 9 0 17
-29 7 -44 -14z"/>
<path d="M1091 2644 c0 -11 3 -14 6 -6 3 7 2 16 -1 19 -3 4 -6 -2 -5 -13z"/>
<path d="M821 2574 c0 -11 3 -14 6 -6 3 7 2 16 -1 19 -3 4 -6 -2 -5 -13z"/>
<path d="M1121 2578 c-1 -19 -26 -24 -36 -8 -3 6 -11 10 -17 10 -5 0 9 -22 31
-49 23 -27 41 -56 41 -64 0 -30 -11 -46 -28 -39 -15 5 -15 4 -3 -12 8 -9 23
-15 32 -13 10 3 20 -1 23 -9 8 -20 26 -17 26 4 0 9 -12 44 -26 77 -14 33 -29
74 -34 90 -4 17 -8 22 -9 13z"/>
<path d="M851 2495 c3 -5 15 -30 28 -56 12 -25 33 -58 47 -75 l25 -29 -18 35
c-10 19 -21 37 -26 38 -4 2 -5 7 -2 12 3 4 -2 13 -10 20 -8 7 -15 18 -15 25 0
7 -8 19 -17 26 -9 8 -15 10 -12 4z"/>
<path d="M983 2306 c15 -14 33 -26 40 -26 13 1 -16 26 -48 41 -13 7 -10 1 8
-15z"/>
<path d="M3348 833 c7 -3 16 -2 19 1 4 3 -2 6 -13 5 -11 0 -14 -3 -6 -6z"/>
<path d="M3455 728 c-4 -10 -11 -16 -15 -13 -9 5 -14 -7 -25 -62 -7 -35 11
-48 21 -15 3 9 12 31 21 49 8 17 13 37 10 45 -3 10 -7 8 -12 -4z"/>
<path d="M2715 720 c3 -5 8 -10 11 -10 2 0 4 5 4 10 0 6 -5 10 -11 10 -5 0 -7
-4 -4 -10z"/>
<path d="M2889 535 c-29 -30 -57 -55 -63 -55 -6 0 -17 -9 -24 -21 -12 -18 -11
-19 6 -10 21 11 142 127 142 136 0 11 -11 2 -61 -50z"/>
<path d="M3350 575 c0 -8 4 -15 10 -15 5 0 7 7 4 15 -4 8 -8 15 -10 15 -2 0
-4 -7 -4 -15z"/>
<path d="M2520 309 c0 -5 5 -7 10 -4 6 3 10 8 10 11 0 2 -4 4 -10 4 -5 0 -10
-5 -10 -11z"/>
<path d="M2398 278 c-16 -5 -28 -14 -28 -19 0 -14 13 -10 40 11 28 22 27 23
-12 8z"/>
<path d="M2490 277 c0 -7 -11 -23 -25 -35 -14 -12 -25 -29 -25 -37 0 -8 -4
-15 -10 -15 -5 0 -10 -4 -10 -10 0 -18 15 -10 32 18 9 15 26 42 38 60 12 17
17 32 11 32 -6 0 -11 -6 -11 -13z"/>
<path d="M2265 250 c3 -5 12 -7 20 -3 21 7 19 13 -6 13 -11 0 -18 -4 -14 -10z"/>
<path d="M2405 139 c-4 -6 -5 -12 -2 -15 2 -3 7 2 10 11 7 17 1 20 -8 4z"/>
<path d="M1670 124 c0 -10 5 -26 10 -34 8 -11 9 -7 4 15 -8 37 -14 45 -14 19z"/>
<path d="M4060 15 c0 -8 4 -15 10 -15 5 0 7 7 4 15 -4 8 -8 15 -10 15 -2 0 -4
-7 -4 -15z"/>
</g>
</svg>
